<?xml version="1.0" encoding="UTF-8"?>
<svg id="Layer_1" xmlns="http://www.w3.org/2000/svg" version="1.1" viewBox="0 0 850.4 850.4">
  <!-- Generator: Adobe Illustrator 30.4.0, SVG Export Plug-In . SVG Version: 2.1.4 Build 226)  -->
  <defs>
    <style>
      .st0 {
        fill: #0635fc;
      }

      .st1 {
        fill: #f7f719;
      }

      .st2 {
        fill: #ef2e93;
      }

      .st3 {
        fill: #fff;
      }

      .st4 {
        fill: #00ff18;
      }
    </style>
  </defs>
  <path class="st4" d="M215.8,388.7c8-3.1,11,9.6,16.2,13.7,1.2-24.3-3.4-50.1-1.2-74.3.4-4.9,4.1-22.2,6.4-26.1,3.3-5.7,5.8-2.1,9.8.5.9-16.5-4.5-33.5-1.9-50s4.9-15.4,5.8-16.1c2.1-1.5,7.6,3.6,8.6,2.4,3.4-25.3,6.7-52.2,15.6-76.1,4.9-13,25.8-55.1,34.9-63.7,2.7-2.6,15.2-11.7,18.2-9.5,4,8.6,9.9,34.6,15.6,40.6s2.8-2.6,6.4-3.6,3.1.3,4.2,1.7c6.1,7.6,1.2,33.5,2.4,43.2,9.2.4,17.8-4.2,26.9-5s15.1-.6,15.6,0c.9,1-2.5,7.6,4.3,7.6,14.5-.2,26.6-8.8,43.8-7.6,7.3.5,10.4.8,6.8,8.8,5.2,3.6,47.3-12.7,59.4-11.3s5,2,3.8,6.4-5.8,8.1-1.3,7.5c2.1-.3,19.5-5.3,20.1-6.2,1.6-8.4-.2-17.2.6-25.7.6-6,5.9-29.7,14.6-26.1,2.3,1,3,6.8,5.9,2.9,4.6-8.4,18.3-54.6,26.4-56.1,3.9-.7,11.6,16.8,13.2,20.3,16.3,36,20.9,72.9,24.1,112,.9,5.5,2.6,1.3,3.2.3,3.2-4.9,7.1-11.8,9.7-5.8,1.3,23.2,1.1,46.5-1.1,69.7-.5,4.9-3.1,14.6-2.3,19,.3,1.5,4.2-1.6,5.5.3,1.9,2.8.9,23.6.4,28-1.9,17.8-8.7,34.9-11.1,52.6,3.7,1.2,5.8-4.5,10.5-3,5,1.6-.4,21.6-1.6,25.6-6.3,20.5-18.8,41.5-25,62.5-.9,3.5,3.6.5,5.6.5,8.3,0,6.1,6.8,4.3,13.1-4.2,14.6-15.9,24.8-24.9,36.3-.4,37,.4,74.1,0,111.2-.1,11.2-2.2,23.1-1.3,35,1.6,21.6,13.8,45.8,4.8,67.1s-9,10.3-10.3,13.4c-1.3,2.9-.6,14-3.8,15-5.9,1.7-5.2-8.3-5.6-8.7-.7-.8-9.7,2.2-10.6,3.7-2,3.4,1.9,14.7-6,12.6s-1.1-9.3-3.2-10.7-9.9-1.8-10.5-1.7c-4.7,1.3-1.9,17.4-9.7,11.8s-1.5-11.9-3-14.5-4.5-2.2-6.3-3.7c-6.5-5.6-9.8-9.8-11.5-18.5-3.5-17.9,2.9-49,3.3-68.5,0-2-.2-3.7-2.4-4.2-8.5,18.6-14.3,37.2-12.5,58,1.7,19.7,12.5,33.2,1,53.5-2.3,4.1-11.8,12.1-12.1,12.9-.9,2.8,0,23.6-7,14.1-1.8-2.4-2.6-9.2-5.2-9.7s-9.1,1.4-10,2.1c-2.8,2.2-1.2,10.9-3.7,11.4-7.8,1.7-6.7-10-8.1-11.2s-14.3-1.8-15.5-.1c-2,2.8-1.1,15.7-7.6,10.1s-1.7-10.8-3.6-13.8-11.5-5.5-15-8.7c-14.4-13.3-9.3-34.7-7.6-51.5s1.2-3.4-1-3.5-11.1,4.8-11.6,5.2c-1.3,1.3-3.3,14.7-8.4,8.4-2.2-2.7-.6-12.3-8.9-6.3s-9.8,21.3-10.5-1.2c-6.4-2.4-8.8,5.1-12.1,6-7.6,2.2-4.5-6.2-5.6-10.2s-2.8-3.1-3.8-5c-5.6-12,3-19.3,4-31.5.5-6.5-.3-12.9-1.2-19.3-8.7,4.9-15.9,12-21.7,20.1-19.7,27-11,56.4-49.5,70.4-3.8,1.4-13.3,2.7-15.7,4.3-3.8,2.7-2.3,11.3-7.4,13.5-6-1.3-4.2-8.7-4.4-13.4-11.4-3.2-6.8,9-15.5,12.4-6.5-3.4-.5-9.3-2.2-14.1s-6.2-5.5-6.9-5.7c-5.4-1.5-5.4,8.2-9.7,8.7-9,1,.4-14.9.6-19.5s-1.9-6-2-8.8c-.9-19.5,22.2-36.2,26.7-60.1,6.6-35.2,9.4-88.1,10.4-124.5.3-10.1,1.3-29.1-.6-38.2-2.3-11.1-24-40.4-30-54.9s-8.1-21.4-8.1-28.1v-20.6Z"/>
  <path d="M215.8,388.7c8-3.1,11,9.6,16.2,13.7,1.2-24.3-3.4-50.1-1.2-74.3.4-4.9,4.1-22.2,6.4-26.1,3.3-5.7,5.8-2.1,9.8.5.9-16.5-4.5-33.5-1.9-50s4.9-15.4,5.8-16.1c2.1-1.5,7.6,3.6,8.6,2.4,3.4-25.3,6.7-52.2,15.6-76.1,4.9-13,25.8-55.1,34.9-63.7,2.7-2.6,15.2-11.7,18.2-9.5,4,8.6,9.9,34.6,15.6,40.6,3.9,4.2,2.8-2.6,6.4-3.6s3.1.3,4.2,1.7c6.1,7.6,1.2,33.5,2.4,43.2,9.2.4,17.8-4.2,26.9-5s15.1-.6,15.6,0c.9,1-2.5,7.6,4.3,7.6,14.5-.2,26.6-8.8,43.8-7.6,7.3.5,10.4.8,6.8,8.8,5.2,3.6,47.3-12.7,59.4-11.3s5,2,3.8,6.4-5.8,8.1-1.3,7.5c2.1-.3,19.5-5.3,20.1-6.2,1.6-8.4-.2-17.2.6-25.7.6-6,5.9-29.7,14.6-26.1,2.3,1,3,6.8,5.9,2.9,4.6-8.4,18.3-54.6,26.4-56.1,3.9-.7,11.6,16.8,13.2,20.3,16.3,36,20.9,72.9,24.1,112,.9,5.5,2.6,1.3,3.2.3,3.2-4.9,7.1-11.8,9.7-5.8,1.3,23.2,1.1,46.5-1.1,69.7-.5,4.9-3.1,14.6-2.3,19,.3,1.5,4.2-1.6,5.5.3,1.9,2.8.9,23.6.4,28-1.9,17.8-8.7,34.9-11.1,52.6,3.7,1.2,5.8-4.5,10.5-3,5,1.6-.4,21.6-1.6,25.6-6.3,20.5-18.8,41.5-25,62.5-.9,3.5,3.6.5,5.6.5,8.3,0,6.1,6.8,4.3,13.1-4.2,14.6-15.9,24.8-24.9,36.3-.4,37,.4,74.1,0,111.2-.1,11.2-2.2,23.1-1.3,35,1.6,21.6,13.8,45.8,4.8,67.1s-9,10.3-10.3,13.4c-1.3,2.9-.6,14-3.8,15-5.9,1.7-5.2-8.3-5.6-8.7-.7-.8-9.7,2.2-10.6,3.7-2,3.4,1.9,14.7-6,12.6s-1.1-9.3-3.2-10.7-9.9-1.8-10.5-1.7c-4.7,1.3-1.9,17.4-9.7,11.8s-1.5-11.9-3-14.5-4.5-2.2-6.3-3.7c-6.5-5.6-9.8-9.8-11.5-18.5-3.5-17.9,2.9-49,3.3-68.5,0-2-.2-3.7-2.4-4.2-8.5,18.6-14.3,37.2-12.5,58,1.7,19.7,12.5,33.2,1,53.5-2.3,4.1-11.8,12.1-12.1,12.9-.9,2.8,0,23.6-7,14.1-1.8-2.4-2.6-9.2-5.2-9.7s-9.1,1.4-10,2.1c-2.8,2.2-1.2,10.9-3.7,11.4-7.8,1.7-6.7-10-8.1-11.2s-14.3-1.8-15.5-.1c-2,2.8-1.1,15.7-7.6,10.1s-1.7-10.8-3.6-13.8-11.5-5.5-15-8.7c-14.4-13.3-9.3-34.7-7.6-51.5,0-.9,1.2-3.4-1-3.5s-11.1,4.8-11.6,5.2c-1.3,1.3-3.3,14.7-8.4,8.4-2.2-2.7-.6-12.3-8.9-6.3s-9.8,21.3-10.5-1.2c-6.4-2.4-8.8,5.1-12.1,6-7.6,2.2-4.5-6.2-5.6-10.2s-2.8-3.1-3.8-5c-5.6-12,3-19.3,4-31.5.5-6.5-.3-12.9-1.2-19.3-8.7,4.9-15.9,12-21.7,20.1-19.7,27-11,56.4-49.5,70.4-3.8,1.4-13.3,2.7-15.7,4.3-3.8,2.7-2.3,11.3-7.4,13.5-6-1.3-4.2-8.7-4.4-13.4-11.4-3.2-6.8,9-15.5,12.4-6.5-3.4-.5-9.3-2.2-14.1s-6.2-5.5-6.9-5.7c-5.4-1.5-5.4,8.2-9.7,8.7-9,1,.4-14.9.6-19.5s-1.9-6-2-8.8c-.9-19.5,22.2-36.2,26.7-60.1,6.6-35.2,9.4-88.1,10.4-124.5.3-10.1,1.3-29.1-.6-38.2s-24-40.4-30-54.9-8.1-21.4-8.1-28.1v-20.6ZM535.5,591l3.7-6.8,6.3-15.7,3.7-11.2c.6-.6,3.7-10.8,4-13.2l1.1-5.1c2.7-5.3,3.6-19.4,7.4-24.9.7-1.1,8.8-7.8,10.7-9.3l7-5.9,12.2-9.4c3.5-2.5,9.9-9.5,12-12.2s11.5-18.3,9.4-21.1c-3.5,1.2-3.9,1.7-13.2,1.3,0,0-3.3-1.3-2.3-3.7l9.3-20.4,5-10.7c6.3-14.4,12.9-30.6,17.6-44.5s1-5.7,1.1-8.2c-.8-1.1-13,12.5-12.6-4.4.3-10.4,5.9-29.4,8.2-40.6.7-3.2,2.4-6.9,3.5-14.3l.9-19.4c-10.8,2.4-5-24.4-5-24.4.9-8,2.2-19.7,2.6-27.4.6-11-.5-22.1,0-33.1-.8-3-3.8,4.2-6.8,6.3-1,.7-3,.8-4.8-.2-2.8-2.6-2.5-3.5-3.6-7.9s-.8-4.3-.8-4.9c.9-22.9-2-51.9-8.2-73.1-4.8-16.6-12.5-32.4-18.2-48.7-1-2.9-8.2,13.6-8.2,13.6-2.7,6.1-15.8,43.5-18.2,44.9-6.3,3.8-7.7-2.9-8.5-5.4-1.4-4.3-2.9-.2-3.5,1.7s-1.1,3-2,7.6l-.8,11,.5,12.6c.3,3,1.2,7.8-.6,10.6s-3.3,2-3.6,2.1c-3.1,1.2-23.7,8.7-23.7,8.7-2,.3-13.5,5.3-16,1.1-4-6.6,6.1-9.2,7.3-14.8-1.9-1.4-40.6,10.1-45.5,12.5-3.3,7-6.4,14.5-8.3,21.8.4,6.1,8.9,7.9,9.6,9.2s-4.1,13.3-4.6,15.7l-4.7,11.5c-7.4,12.4-9,25-20.2,37.2-3.1,3.3-6.6,8.2-11.7,4.5-3.2-2.3,1.5-23.8,1.5-28.5l1.3-7.2c.9-3.8,2.2-16.2,1.6-18.5-1.3-5.1-7.7,1.3-8.4,1.5-6.3,1.7-5.8-6-6.2-10.7l1.2-8,4.3-19.5c.3-3.6,2.2-10.5,2.8-15.4-7.7,1.2-15,4.6-23,3.6s-7.8-2.2-8.1-2.6c-.8-1.2.2-4.4-.2-4.8-2.2-2.3-30.2,6.1-38,4.8-2.7-.4-2.5-8.4-2.5-8.4.6-2.3,1.6-9.4,1.8-12,.5-6.3-.4-13,0-19.4-2.9.7-.5,5.2-4.1,6.7s-2,.8-3.4.2c-4.2-1.8-10.9-26-13.2-31.9-1.7-4.4-3.6-9-5.5-13.3s.4-2.6-2-1.7c-2.3.9-9.4,8-11,10.3-11.3,15.8-29,52.1-34.2,70.6s-5.9,33.2-9,48.4c-1.7,8.3-4,17.2-2.6,25.5l-13.7-3.7,2.3,65.4c-7.3,7.7-7.6-2.6-13.6-4.2-1.1,13.8-4,29.3-3.9,43.1l2.5,27.4c-.6,5.7-.3,16.7.1,22.6s2.5,7.6,2.3,8-6,5.1-6.5,5c-4.4-.6-9.9-10.9-13.3-13.6,2.5,12.6,6.1,25,11.4,36.7,7.7,17,19.2,32,27.3,48.6.4.8.9,2.6.9,2.7.4,1-.4,15.6.2,20.1,0,0-2.5,65.5-2.8,69.5-1.9,26.1-4,68.8-11.2,92.4-.6,1.9-3,3.5-3,3.5l-11.4,15.2c-.8.5-7.3,14-7.4,15.7s1.2,11.8,1.9,13.8c5.9,15,40.5,15.3,52.4,8.1,0,0,2.9-1.1,8.8-4.3s6.9-5.8,7.7-6.6c11.4-11.8,13.3-33.3,20.4-45.9s28.9-36.5,47-40.4c4-.8,21.7-2.1,25.4-1.4s7.8,2.6,10.4,4.2c4.5,2.7,3.5,2.5,6.1,4.1l.6.6c10.6,9.9,16.9,25.2,16.2,39.9-.7,15-12.1,39.9-8.7,53.5,0,0,1,4.2,1.5,6.2,1.4,5.4,9.2,12.6,14.1,14.6,14,5.8,47.4,6.9,60.9-.2,14.7-7.7,16.2-25.6,12-40.1l-1.2-6.5c-.2-2.6-1.7-6.2-2.5-13.1l-.3-3.8c.3-23.1,2.8-33.8,8.8-48.2s6.9-12.1,7.5-13.7l3.8-5.5,5.2-8.6c1.7-2.9,11.2-23.7,11.2-23.7ZM526.2,661.2l-.7,10.4c-1.1,5.9-2.8,22.8-2.6,28.8.3,6.1,2.1,14.1,6.4,18.5,0,0,8.5,6.1,11.1,7,3,1,20.1,1.7,24,.9,11.9-2.2,21.4-8.9,26.6-19,9.6-18.6-1.3-32.6-4.1-51.6-2.8-19.2.7-38.1.9-57.2.3-23.6-.8-47.4-1.4-71.1-.2-8.1,1.9-16.4-.5-24.4-5.6,6.1-19.6,11-22,25.4l-1.3,6.3c-.5.9-4.6,16.2-4.8,17.6,0,0-18.6,49.6-19.3,51.1,0,0-2.6,5.2-3.8,6.4,0,0-2.4,4.9-3.2,6.1s-2.9,4.4-3,5c-.5,2-1.8,17.4-1.3,18.2l-.6,5.6-.6,15.8ZM412.9,683.8c.2-2,.6-17.5,0-19.5s-1.9-5.6-2.7-7.3c-1.1-2.5-1.7-2.9-4.6-6.7-2.5-3.3-4.5-4.5-6.7-6,0,0-8.6-4.9-13.9-4.6-10,.5-25.6,3.7-25.6,3.7l1.2,16.2s.6,9.2-.3,12.8c-3.9,14.6-11.9,25.5,9.6,27.2,11.8.9,32.9.3,40.6-9.4,0,0,2-3.9,2.3-6.4Z"/>
  <path d="M470.1,396.6c-1.7,5.4-2,4.3-8.3,9-2.5,1.9-13,6.7-13.7,6.9-5.9,2-8.9,9.4-8.9,9.4-1.5,2.7-1.2,9.7-2.8,13.3-2.2,4.9-5.5,3-4.6,11.4,1,8.9,8.2,20.4,14.9,26.4,1.3,1.2,7.5,5.6,7.5,5.6,1.3,1.3,18.8,4.9,21.8,5.1,6.7.3,29.3-3.4,34.8-6.5s4.9-1.7,5.7-1.9c3.3-.6,5.6,0,6.3,2.1.3,6.1-13.8,9.3-13.8,9.3-.7.2-10.9,2.7-12.1,2.9-3.7.6-20.6,1.3-21.6,2.1l-3.2,12.4c-2.4,6.2-5.8,9.7-8,12s-4.1,1.6-5.5,1.3c-4.7-1,2-24.6-1.9-29.6s-5.4-2.3-7.5-3.7c-3.1-2.1-6.6-5.6-9.7-7.8l-4.2-4.4c-2.6-3.5-7.2-12.8-7.2-12.8-1.1-4.1-5.5-10.8-3.9-15.5-6.1,3.7-9.3,10.3-15,15.6-4,3.8-12.3,10.4-16.9,13s-21.5,7.9-22.5,8.7c0,0-.6,0-.5,1,0,0,1.2,13.4,1.5,15.6.7,4.6,4.4,16.6-2.5,18.3-3.2.8-3.9-1.8-6-4l-2.5-3.8c-.4-1-3.9-7.5-4.9-10.9s-1.6-9.2-2.5-13.8c-7.4-.8-23.1-6.7-23.1-6.7-3.7-.5-5.2-3.8-3.7-6.2s7.8.6,9.8,1.2c28.4,8,56-3,75-24.1,8.6-9.5,1.5-7.3-.7-16.4-1.2-5.1-1.1-19.4-4.8-22.6-2.4-2.1-6.7-1.6-9.5-5.5-7.1-10-2-24.4,8.8-28.8s15.9-2.4,25.2-2.1,6.8.9,7.9,1c8.5.5,7.1,0,16.8,2.2,3.9,1,4.9,1.4,6.9,2,4.3,1.3,6.5,3,8.9,6.8,0,0,1.3,8.4,0,12.3ZM366.4,506.2l-1.2-23.8c-2.7,1.8-3.8,1.5-6.4,2.1l7.7,21.7ZM462.4,510.3l7.3-19-5.9-2-.5,7-.9,14Z"/>
  <polygon class="st3" points="463.4 496.3 462.4 510.3 469.7 491.2 463.8 489.3 463.4 496.3"/>
  <path class="st3" d="M358.8,484.5l7.7,21.7-1.2-23.8c-2.7,1.8-3.8,1.5-6.4,2.1Z"/>
  <path d="M514.4,252c2.6-1.4,4.7-2.5,5.3-2.9,2.9-2.2,6.9-3.1,6.9-3.1,7.4-2.2,8.6-2.7,10.3-2.8,15.8-.9,18.1.6,28.9,2.1,18.2,2.6,25.1,14.9,25.1,14.9,2.6,8.3.4,10.4,0,14.1-.9,7.6-5.2,16.2-5.2,16.2-1.3,3.4-4.5,8.2-4.5,8.2-1.6,3-13.8,16.1-13.8,16.1-7.4,8-17.3,14.2-17.3,14.2-5.6,3-21.5,9.4-21.5,9.4-16.8,3.7-40.4,4.7-54.8-6.1-8.4-6.3-13.3-18.3-9.9-28.6,3.1-9.4,25-32.2,33-39.4,1.8-1.6,9.6-6.5,10-7l7.6-5.4ZM488,286.3c-16.4,12.1-29.3,35.1-2.4,44.3,31.7,10.9,66.4-6.6,84.9-32.5,5.2-7.4,19.2-32.4,9.2-39.2s-30.5-8.7-32.9-6.4c4.1,16.8,5,40.1-10,51.8-16.6,13-45.4,3.3-48.7-18.1ZM534.3,273c.6-2.6,2.5-4,4.6-6.6-1.5.8-8.2,3.3-14.9-1.7s4,6.2,3.3,7.8,0,1.7-5.7,7.5c4.4-1.7,5-2.9,7.3-3s4,3,6.4,4.3c0,0-1.6-6.3-1.1-8.3Z"/>
  <path d="M408.1,300.7c-2.9,23.9-44.6,39.2-64.9,33.6-4.4-1.2-10.5-5.6-13.7-6.3l-7.5-5.5-5.8-5.4c-10.6-15.5-17.5-29.7-22.3-48.3-.7-2.8-3.4-11.6-2.5-13.7,9.1-10.4,22.2-11.2,34.7-15.1,0,0,30.7-1.9,45.6,5.4s4.3,2.1,7.8,4.9l3.2,3.4c.7,1.5,12.6,14.4,15.5,18.2s4.5,7.7,6.9,11.8,3.1,16.9,3.1,16.9ZM326.9,247.6c-3.8,0-27,7.5-27.5,9.6,1.6,20.5,16.6,57.2,36,66.3,17.6,8.2,48.5,3.3,60-13,6.4-9.1,5.2-27.8-3.5-34.8-2.7-2.2-4.4,4-6.3,6.2-12,13.8-27.6,23.3-46.2,15-19.5-8.7-13-32.5-12.5-49.3ZM352.6,249.3l-5.7-.5v20.6c0,1.3,1.2,3.1,1.2,3.1,4.4,8.2,15.2,1.7,19.5-3.8l4.3-4.5c5.6-7.3-.3-12.4-6.6-12.9l-12.8-2.1Z"/>
  <path d="M563.1,163.4l4.8-20.4c1.6-4.5,7.4-21.2,11.3-23.4,1.3-.7,5.3-1.2,6.1-.5s2.2,14.1,2.7,16.6c.9,4.6,1.7,8.9,2.5,13.7s7.3,31.6,2.3,35.1-14.3,4.5-16.7,4.3-5.7-1.1-7.8-2.5-4.6-4.4-5.4-5.5c-1.8-2.5,0-17.5,0-17.5ZM586.7,178.9l-6.9-45c-4.6,7.4-7.5,18.5-9,27.2-2.9,16.7-4,21.6,15.9,17.7Z"/>
  <path d="M312.4,130.7c4.3-6,9-4.9,11.4,2s5.5,36.9,4.3,43.1c-.7,3.9-12.7,14-16.8,15.7-5.3,2.2-10.1,3.5-11.8-3.2-3.7-14.1,4.2-45.5,12.9-57.5ZM318.2,141.4c-2.2-.4-2.5.5-3.5,2.1-2.9,5-10.6,37-7.8,40.3,3.5-.9,12.6-7.9,13.5-10.9,2-6.5-3.6-23.8-2.3-31.6Z"/>
  <path class="st1" d="M521.8,280c4.4-1.7,5-2.9,7.3-3,2.9-.2,4,3,6.4,4.3,0,0-1.6-6.3-1.1-8.3.6-2.6,2.5-4,4.6-6.6-1.5.8-8.2,3.3-14.9-1.7-.1-.1,4,6.2,3.3,7.8-.6,1.4,0,1.7-5.7,7.5Z"/>
  <path class="st1" d="M367.7,268.8l4.3-4.5c5.6-7.3-.3-12.4-6.6-12.9l-12.8-2.1-5.7-.5v20.6c0,1.3,1.2,3.1,1.2,3.1,4.4,8.2,15.2,1.7,19.5-3.8Z"/>
  <path class="st3" d="M320.3,173c2-6.5-3.6-23.8-2.3-31.6-2.2-.4-2.5.5-3.5,2.1-2.9,5-10.6,37-7.8,40.3,3.5-.9,12.6-7.9,13.5-10.9Z"/>
  <path class="st3" d="M570.8,161.2c-2.9,16.7-4,21.6,15.9,17.7l-6.9-45c-4.6,7.4-7.5,18.5-9,27.2Z"/>
  <path d="M339.1,394.2c1.3.8.5,7.5-4,4.8-2.6-1.6.2-7,4-4.8Z"/>
  <path d="M354.9,376.7c1.3.8.5,7.5-4,4.8s.2-7,4-4.8Z"/>
  <path d="M377.9,407.5c1.3.8.5,7.5-4,4.8-2.6-1.6.2-7,4-4.8Z"/>
  <path d="M497,404.5c1.3.8.5,7.5-4,4.8-2.6-1.6.2-7,4-4.8Z"/>
  <path d="M502.6,432.7c1.3.8.5,7.5-4,4.8-2.6-1.6.2-7,4-4.8Z"/>
  <path d="M555.6,429.7c1.3.8.5,7.5-4,4.8s.2-7,4-4.8Z"/>
  <path d="M580.7,412.9c1.3.8.5,7.5-4,4.8s.2-7,4-4.8Z"/>
  <path d="M516.8,415.9c1.3.8.5,7.5-4,4.8s.2-7,4-4.8Z"/>
  <path d="M544.1,404.5c1.3.8.5,7.5-4,4.8-2.6-1.6.2-7,4-4.8Z"/>
  <path d="M514,373.8c1.3.8.5,7.5-4,4.8-2.6-1.6.2-7,4-4.8Z"/>
  <path d="M561.2,369c1.3.8.5,7.5-4,4.8-2.6-1.6.2-7,4-4.8Z"/>
  <path d="M364.8,426.7c1.3.8.5,7.5-4,4.8s.2-7,4-4.8Z"/>
  <path d="M324.6,420.7c1.3.8.5,7.5-4,4.8-2.6-1.6.2-7,4-4.8Z"/>
  <path d="M308.5,404.5c1.3.8.5,7.5-4,4.8s.2-7,4-4.8Z"/>
  <path d="M324.6,375.4c1.3.8.5,7.5-4,4.8-2.6-1.6.2-7,4-4.8Z"/>
  <path d="M344.7,361.7c1.3.8.5,7.5-4,4.8s.2-7,4-4.8Z"/>
  <path d="M365.8,185.4"/>
  <path d="M448.7,468.6"/>
  <path class="st2" d="M406.2,404s-9.1-2.2-9.3-11c0,0,1.1-13.6,16-15.4,0,0,42-.6,51.6,7.1,0,0,6.8,9.2-4.7,16.9,0,0-19,6-21.9,13.9,0,0-5.6,22.1-10.9,22.1,0,0-11,1.9-12.9-8.3,0,0,0-22.9-7.9-25.2Z"/>
  <path class="st0" d="M426.5,183.9s-8.5,35.4-7.1,37.5c0,0-.5,4.1,4.8,0,0,0,11.3-2.8,8.8,6.7,0,0-11.1,59.1-3.9,48.3,0,0,25.4-40,26.3-54.5,0,0,.8-3.7-2.1-5,0,0-10-2.9-2.7-15.8l4.6-11.4,1.9-5.9s-6.8-.5-8-3.3c0,0,.9-5.8-1.9-6.3,0,0-17.5.6-19,3.9l-1.7,5.8Z"/>
</svg>