<svg width="24" height="24" viewBox="0 0 24 24" fill="none" xmlns="http://www.w3.org/2000/svg">
<g clip-path="url(#clip0_4887_41129)">
<path d="M12.0057 0C5.38106 0 0 5.37229 0 12C0 18.6277 5.38106 24 12.0057 24C18.6302 24 24 18.6277 24 12C24 5.37229 18.6302 0 12.0057 0Z" fill="url(#paint0_radial_4887_41129)"/>
<g opacity="0.6" filter="url(#filter0_f_4887_41129)">
<path d="M8.22168 5.0625L8.79395 5.84277L11.1885 5.83887L11.8936 6.91992L10.9238 8.60938L10.2061 7.38184L9.58789 7.45312L9.35352 7.96973L11.3154 11.1709H15.3584C15.2267 11.4749 15.0038 11.7328 14.8779 12.04L17.3154 16.2305L17.3164 16.2314C17.0117 16.7308 16.73 17.2442 16.4277 17.7451L16.9111 18.499L16.6758 19L16.0049 18.9375L15.458 18.1914L13.0381 18.1709L12.4229 17.1201L12.6885 16.6602L13.3896 15.3154L14.1758 16.6582L14.7949 16.5869L15.0293 16.0703L13.0664 12.8691H8.95703C9.09117 12.5749 9.28358 12.3116 9.43262 12.0264L7 7.80957C7.00435 7.80192 7.46106 7.00043 7.85742 6.3457L7.31641 5.50098L7.55176 5L8.22168 5.0625ZM7.54004 16.2002L8.40625 17.7051C8.40625 17.7051 10.0631 17.6822 10.8672 17.7451C10.998 17.7541 12.138 15.7529 12.9014 14.4805L13.1582 14.9219C12.5538 15.9982 11.2697 18.1889 11.2432 18.1963L8.14648 18.1797C7.76312 17.5202 7.36116 16.8692 7.00098 16.1982L8.68652 13.3223H9.19629L7.54004 16.2002ZM16.168 5.86035C16.5513 6.51904 16.9534 7.17167 17.3145 7.8418L15.6289 10.7178H15.1182L16.7754 7.83984L15.9072 6.33496L13.4463 6.29395C13.4258 6.32707 12.1411 8.40591 11.4512 9.51172L11.1885 9.06152C11.7573 8.03192 12.3787 7.03123 12.9541 6.00488C12.9798 5.96312 13.0325 5.85553 13.0713 5.84375L16.168 5.86035Z" fill="black"/>
</g>
<path d="M12.901 14.4807C12.1376 15.7531 10.9983 17.7545 10.8675 17.7456C10.0635 17.6826 8.40667 17.7055 8.40667 17.7055L7.53976 16.2002L9.19658 13.3227H8.68653L7.00073 16.1985C7.36091 16.8695 7.76332 17.52 8.14668 18.1795L11.2434 18.1958C11.2699 18.1885 12.5533 15.9983 13.1577 14.922L12.901 14.4807Z" fill="white"/>
<path d="M11.4521 9.51194C12.1476 8.39724 13.4468 6.29369 13.4468 6.29369L15.9076 6.33455L16.7753 7.83989L15.1185 10.7174H15.6285L17.3143 7.84152C16.9533 7.17139 16.5518 6.51924 16.1684 5.86055L13.0717 5.84421C13.0328 5.85565 12.9798 5.96352 12.9541 6.0052C12.3786 7.03165 11.7568 8.03194 11.188 9.06165L11.4513 9.51194H11.4521Z" fill="white"/>
<path d="M17.3152 16.2304L14.8784 12.0396C15.0042 11.7324 15.227 11.4749 15.3586 11.1709H11.3155L9.35317 7.96982L9.58749 7.45333L10.206 7.38141L10.9239 8.6089L11.8935 6.91968L11.1888 5.8393L8.79427 5.84257L8.22212 5.06293L7.55145 5L7.31629 5.50096L7.85698 6.34598C7.45871 7.00385 7 7.80964 7 7.80964L9.43266 12.0266C9.28362 12.3118 9.09152 12.5749 8.95739 12.8691H12.7678H13.0667L15.0291 16.0702L14.7948 16.5867L14.1763 16.6586L13.3897 15.3151L12.6883 16.6603L12.4226 17.1204L13.0378 18.1713L15.458 18.1909L16.0053 18.9371L16.676 19L16.9111 18.499L16.4276 17.7447C16.7298 17.2438 17.0113 16.7305 17.316 16.2312L17.3152 16.2304Z" fill="white"/>
</g>
<defs>
<filter id="filter0_f_4887_41129" x="5" y="3" width="14.3164" height="18" filterUnits="userSpaceOnUse" color-interpolation-filters="sRGB">
<feFlood flood-opacity="0" result="BackgroundImageFix"/>
<feBlend mode="normal" in="SourceGraphic" in2="BackgroundImageFix" result="shape"/>
<feGaussianBlur stdDeviation="1" result="effect1_foregroundBlur_4887_41129"/>
</filter>
<radialGradient id="paint0_radial_4887_41129" cx="0" cy="0" r="1" gradientUnits="userSpaceOnUse" gradientTransform="translate(12.0046 11.9999) scale(12.0001 12.0001)">
<stop offset="0.1358" stop-color="#646464"/>
<stop offset="0.719956" stop-color="#484848"/>
<stop offset="0.758042" stop-color="#434343"/>
<stop offset="0.792232" stop-color="#333333"/>
<stop offset="0.810409" stop-color="#292929"/>
<stop offset="0.818632" stop-color="#4A4A4A"/>
<stop offset="0.825124" stop-color="#515151"/>
<stop offset="0.842868" stop-color="#515151"/>
<stop offset="0.9109" stop-color="#4A4A4A"/>
<stop offset="0.949" stop-color="#494949"/>
<stop offset="0.9599" stop-color="#535353"/>
<stop offset="0.9806" stop-color="#606060"/>
<stop offset="1" stop-color="#646464"/>
</radialGradient>
<clipPath id="clip0_4887_41129">
<path d="M0 12C0 5.37258 5.37258 0 12 0V0C18.6274 0 24 5.37258 24 12V12C24 18.6274 18.6274 24 12 24V24C5.37258 24 0 18.6274 0 12V12Z" fill="white"/>
</clipPath>
</defs>
</svg>
