<?xml version="1.0" encoding="UTF-8"?>
<svg id="Layer_1" data-name="Layer 1" xmlns="http://www.w3.org/2000/svg" xmlns:xlink="http://www.w3.org/1999/xlink" viewBox="0 0 79.07 71.43">
  <defs>
    <style>
      .cls-1 {
        fill: url(#linear-gradient);
      }
    </style>
    <linearGradient id="linear-gradient" x1="77.22" y1="74.85" x2="-1.54" y2="-2.25" gradientTransform="translate(0 73.68) scale(1 -1)" gradientUnits="userSpaceOnUse">
      <stop offset="0" stop-color="#a8011f"/>
      <stop offset="1" stop-color="#b02"/>
    </linearGradient>
  </defs>
  <path class="cls-1" d="M79.06,65.97c-.4-8.8-11.22-21.85-17.12-28.33-4.1-4.5-9.03-9.33-14.13-13.75,2.58-1.75,5.05-3.23,7.33-4.4,3.83,3.69,6.34,8.8,6.79,14.3,3.4-3.73,6.65-7.64,9.55-11.74,2.66-3.81,5.15-7.78,6.69-12.18C79.83,5.13,79.62.08,73.43,0c-2.11-.02-4.19.46-6.21,1.08-2.44.76-4.8,1.76-7.11,2.87-2.49,1.21-4.9,2.54-7.29,3.98-2.96,1.78-5.82,3.69-8.66,5.72-1.53,1.09-3.07,2.24-4.63,3.44-1.56-1.2-3.1-2.35-4.63-3.44-2.84-2.03-5.7-3.93-8.66-5.72-2.39-1.44-4.8-2.77-7.29-3.98-2.31-1.11-4.67-2.11-7.11-2.87C9.83.46,7.75-.02,5.63,0-.56.08-.77,5.13.9,9.86c1.54,4.4,4.03,8.37,6.69,12.18,2.9,4.11,6.14,8.01,9.55,11.74.46-5.5,2.97-10.61,6.79-14.3,2.28,1.17,4.75,2.65,7.33,4.4-5.09,4.42-10.02,9.25-14.13,13.75-5.52,6.12-10.79,12.59-14.55,19.95-1.54,3.18-3.89,8.55-1.68,11.82,2.61,3.53,9.01,1.62,12.48.42,7.75-2.85,14.79-7.3,21.53-12.05-5.39-1.13-10.14-4.24-13.33-8.5,3.73-5.66,11.03-13.43,17.96-19.12,6.94,5.7,14.22,13.46,17.96,19.12-3.19,4.26-7.94,7.38-13.33,8.5,6.29,4.46,12.85,8.59,20,11.48,4.72,1.93,15,4.9,14.9-3.28h-.01Z"/>
</svg>